<?xml version="1.0" encoding="UTF-8" standalone="no"?>
<!DOCTYPE svg PUBLIC "-//W3C//DTD SVG 1.1//EN"
 "http://www.w3.org/Graphics/SVG/1.1/DTD/svg11.dtd">
<!-- Generated by graphviz version 2.40.1 (20161225.0304)
 -->
<!-- Title: controllers_diagram Pages: 1 -->
<svg width="668pt" height="682pt"
 viewBox="0.00 0.00 668.43 682.00" xmlns="http://www.w3.org/2000/svg" xmlns:xlink="http://www.w3.org/1999/xlink">
<g id="graph0" class="graph" transform="scale(1 1) rotate(0) translate(4 678)">
<title>controllers_diagram</title>
<polygon fill="transparent" stroke="transparent" points="-4,4 -4,-678 664.4277,-678 664.4277,4 -4,4"/>
<!-- _diagram_info -->
<g id="node1" class="node">
<title>_diagram_info</title>
<text text-anchor="start" x="323" y="-103.6" font-family="Times,serif" font-size="13.00" fill="#000000">Controllers diagram</text>
<text text-anchor="start" x="323" y="-90.6" font-family="Times,serif" font-size="13.00" fill="#000000">Date: May 10 2017 &#45; 20:55</text>
<text text-anchor="start" x="323" y="-77.6" font-family="Times,serif" font-size="13.00" fill="#000000">Migration version: 20170502074945</text>
<text text-anchor="start" x="323" y="-64.6" font-family="Times,serif" font-size="13.00" fill="#000000">Generated by RailRoady 1.5.2</text>
<text text-anchor="start" x="323" y="-51.6" font-family="Times,serif" font-size="13.00" fill="#000000">http://railroady.prestonlee.com</text>
</g>
<!-- ApplicationController -->
<g id="node2" class="node">
<title>ApplicationController</title>
<path fill="none" stroke="#000000" d="M417,-150.5C417,-150.5 590.9316,-150.5 590.9316,-150.5 596.9316,-150.5 602.9316,-156.5 602.9316,-162.5 602.9316,-162.5 602.9316,-242.5 602.9316,-242.5 602.9316,-248.5 596.9316,-254.5 590.9316,-254.5 590.9316,-254.5 417,-254.5 417,-254.5 411,-254.5 405,-248.5 405,-242.5 405,-242.5 405,-162.5 405,-162.5 405,-156.5 411,-150.5 417,-150.5"/>
<text text-anchor="middle" x="503.9658" y="-239.3" font-family="Times,serif" font-size="14.00" fill="#000000">ApplicationController</text>
<polyline fill="none" stroke="#000000" points="405,-232.5 602.9316,-232.5 "/>
<text text-anchor="start" x="413" y="-217.3" font-family="Times,serif" font-size="14.00" fill="#000000">current_notifications</text>
<polyline fill="none" stroke="#000000" points="405,-210.5 602.9316,-210.5 "/>
<polyline fill="none" stroke="#000000" points="405,-186.5 602.9316,-186.5 "/>
<text text-anchor="start" x="413" y="-171.3" font-family="Times,serif" font-size="14.00" fill="#000000">_layout</text>
<text text-anchor="start" x="413" y="-157.3" font-family="Times,serif" font-size="14.00" fill="#000000">configure_permitted_parameters</text>
</g>
<!-- BlogsController -->
<g id="node3" class="node">
<title>BlogsController</title>
<path fill="none" stroke="#000000" d="M357,-360.5C357,-360.5 439.2207,-360.5 439.2207,-360.5 445.2207,-360.5 451.2207,-366.5 451.2207,-372.5 451.2207,-372.5 451.2207,-564.5 451.2207,-564.5 451.2207,-570.5 445.2207,-576.5 439.2207,-576.5 439.2207,-576.5 357,-576.5 357,-576.5 351,-576.5 345,-570.5 345,-564.5 345,-564.5 345,-372.5 345,-372.5 345,-366.5 351,-360.5 357,-360.5"/>
<text text-anchor="middle" x="398.1104" y="-561.3" font-family="Times,serif" font-size="14.00" fill="#000000">BlogsController</text>
<polyline fill="none" stroke="#000000" points="345,-554.5 451.2207,-554.5 "/>
<text text-anchor="start" x="353" y="-539.3" font-family="Times,serif" font-size="14.00" fill="#000000">update</text>
<text text-anchor="start" x="353" y="-525.3" font-family="Times,serif" font-size="14.00" fill="#000000">create</text>
<text text-anchor="start" x="353" y="-511.3" font-family="Times,serif" font-size="14.00" fill="#000000">destroy</text>
<text text-anchor="start" x="353" y="-497.3" font-family="Times,serif" font-size="14.00" fill="#000000">edit</text>
<text text-anchor="start" x="353" y="-483.3" font-family="Times,serif" font-size="14.00" fill="#000000">index</text>
<text text-anchor="start" x="353" y="-469.3" font-family="Times,serif" font-size="14.00" fill="#000000">new</text>
<text text-anchor="start" x="353" y="-455.3" font-family="Times,serif" font-size="14.00" fill="#000000">show</text>
<text text-anchor="start" x="353" y="-441.3" font-family="Times,serif" font-size="14.00" fill="#000000">confirm</text>
<polyline fill="none" stroke="#000000" points="345,-434.5 451.2207,-434.5 "/>
<polyline fill="none" stroke="#000000" points="345,-410.5 451.2207,-410.5 "/>
<text text-anchor="start" x="353" y="-395.3" font-family="Times,serif" font-size="14.00" fill="#000000">_layout</text>
<text text-anchor="start" x="353" y="-381.3" font-family="Times,serif" font-size="14.00" fill="#000000">blogs_params</text>
<text text-anchor="start" x="353" y="-367.3" font-family="Times,serif" font-size="14.00" fill="#000000">set_blog</text>
</g>
<!-- CommentsController -->
<g id="node4" class="node">
<title>CommentsController</title>
<path fill="none" stroke="#000000" d="M192,-375.5C192,-375.5 302.2139,-375.5 302.2139,-375.5 308.2139,-375.5 314.2139,-381.5 314.2139,-387.5 314.2139,-387.5 314.2139,-509.5 314.2139,-509.5 314.2139,-515.5 308.2139,-521.5 302.2139,-521.5 302.2139,-521.5 192,-521.5 192,-521.5 186,-521.5 180,-515.5 180,-509.5 180,-509.5 180,-387.5 180,-387.5 180,-381.5 186,-375.5 192,-375.5"/>
<text text-anchor="middle" x="247.1069" y="-506.3" font-family="Times,serif" font-size="14.00" fill="#000000">CommentsController</text>
<polyline fill="none" stroke="#000000" points="180,-499.5 314.2139,-499.5 "/>
<text text-anchor="start" x="188" y="-484.3" font-family="Times,serif" font-size="14.00" fill="#000000">create</text>
<text text-anchor="start" x="188" y="-470.3" font-family="Times,serif" font-size="14.00" fill="#000000">destroy</text>
<text text-anchor="start" x="188" y="-456.3" font-family="Times,serif" font-size="14.00" fill="#000000">edit</text>
<text text-anchor="start" x="188" y="-442.3" font-family="Times,serif" font-size="14.00" fill="#000000">update</text>
<polyline fill="none" stroke="#000000" points="180,-435.5 314.2139,-435.5 "/>
<polyline fill="none" stroke="#000000" points="180,-411.5 314.2139,-411.5 "/>
<text text-anchor="start" x="188" y="-396.3" font-family="Times,serif" font-size="14.00" fill="#000000">_layout</text>
<text text-anchor="start" x="188" y="-382.3" font-family="Times,serif" font-size="14.00" fill="#000000">comment_params</text>
</g>
<!-- ContactsController -->
<g id="node5" class="node">
<title>ContactsController</title>
<path fill="none" stroke="#000000" d="M42,-525.5C42,-525.5 140.5381,-525.5 140.5381,-525.5 146.5381,-525.5 152.5381,-531.5 152.5381,-537.5 152.5381,-537.5 152.5381,-645.5 152.5381,-645.5 152.5381,-651.5 146.5381,-657.5 140.5381,-657.5 140.5381,-657.5 42,-657.5 42,-657.5 36,-657.5 30,-651.5 30,-645.5 30,-645.5 30,-537.5 30,-537.5 30,-531.5 36,-525.5 42,-525.5"/>
<text text-anchor="middle" x="91.269" y="-642.3" font-family="Times,serif" font-size="14.00" fill="#000000">ContactsController</text>
<polyline fill="none" stroke="#000000" points="30,-635.5 152.5381,-635.5 "/>
<text text-anchor="start" x="38" y="-620.3" font-family="Times,serif" font-size="14.00" fill="#000000">confirm</text>
<text text-anchor="start" x="38" y="-606.3" font-family="Times,serif" font-size="14.00" fill="#000000">create</text>
<text text-anchor="start" x="38" y="-592.3" font-family="Times,serif" font-size="14.00" fill="#000000">new</text>
<polyline fill="none" stroke="#000000" points="30,-585.5 152.5381,-585.5 "/>
<polyline fill="none" stroke="#000000" points="30,-561.5 152.5381,-561.5 "/>
<text text-anchor="start" x="38" y="-546.3" font-family="Times,serif" font-size="14.00" fill="#000000">_layout</text>
<text text-anchor="start" x="38" y="-532.3" font-family="Times,serif" font-size="14.00" fill="#000000">contacts_params</text>
</g>
<!-- ConversationsController -->
<g id="node6" class="node">
<title>ConversationsController</title>
<path fill="none" stroke="#000000" d="M492,-420.5C492,-420.5 621.6484,-420.5 621.6484,-420.5 627.6484,-420.5 633.6484,-426.5 633.6484,-432.5 633.6484,-432.5 633.6484,-526.5 633.6484,-526.5 633.6484,-532.5 627.6484,-538.5 621.6484,-538.5 621.6484,-538.5 492,-538.5 492,-538.5 486,-538.5 480,-532.5 480,-526.5 480,-526.5 480,-432.5 480,-432.5 480,-426.5 486,-420.5 492,-420.5"/>
<text text-anchor="middle" x="556.8242" y="-523.3" font-family="Times,serif" font-size="14.00" fill="#000000">ConversationsController</text>
<polyline fill="none" stroke="#000000" points="480,-516.5 633.6484,-516.5 "/>
<text text-anchor="start" x="488" y="-501.3" font-family="Times,serif" font-size="14.00" fill="#000000">create</text>
<text text-anchor="start" x="488" y="-487.3" font-family="Times,serif" font-size="14.00" fill="#000000">index</text>
<polyline fill="none" stroke="#000000" points="480,-480.5 633.6484,-480.5 "/>
<polyline fill="none" stroke="#000000" points="480,-456.5 633.6484,-456.5 "/>
<text text-anchor="start" x="488" y="-441.3" font-family="Times,serif" font-size="14.00" fill="#000000">_layout</text>
<text text-anchor="start" x="488" y="-427.3" font-family="Times,serif" font-size="14.00" fill="#000000">conversation_params</text>
</g>
<!-- MessagesController -->
<g id="node7" class="node">
<title>MessagesController</title>
<path fill="none" stroke="#000000" d="M192,-555.5C192,-555.5 295.9795,-555.5 295.9795,-555.5 301.9795,-555.5 307.9795,-561.5 307.9795,-567.5 307.9795,-567.5 307.9795,-661.5 307.9795,-661.5 307.9795,-667.5 301.9795,-673.5 295.9795,-673.5 295.9795,-673.5 192,-673.5 192,-673.5 186,-673.5 180,-667.5 180,-661.5 180,-661.5 180,-567.5 180,-567.5 180,-561.5 186,-555.5 192,-555.5"/>
<text text-anchor="middle" x="243.9897" y="-658.3" font-family="Times,serif" font-size="14.00" fill="#000000">MessagesController</text>
<polyline fill="none" stroke="#000000" points="180,-651.5 307.9795,-651.5 "/>
<text text-anchor="start" x="188" y="-636.3" font-family="Times,serif" font-size="14.00" fill="#000000">create</text>
<text text-anchor="start" x="188" y="-622.3" font-family="Times,serif" font-size="14.00" fill="#000000">index</text>
<polyline fill="none" stroke="#000000" points="180,-615.5 307.9795,-615.5 "/>
<polyline fill="none" stroke="#000000" points="180,-591.5 307.9795,-591.5 "/>
<text text-anchor="start" x="188" y="-576.3" font-family="Times,serif" font-size="14.00" fill="#000000">_layout</text>
<text text-anchor="start" x="188" y="-562.3" font-family="Times,serif" font-size="14.00" fill="#000000">message_params</text>
</g>
<!-- NotificationsController -->
<g id="node8" class="node">
<title>NotificationsController</title>
<path fill="none" stroke="#000000" d="M12,-405.5C12,-405.5 133.876,-405.5 133.876,-405.5 139.876,-405.5 145.876,-411.5 145.876,-417.5 145.876,-417.5 145.876,-483.5 145.876,-483.5 145.876,-489.5 139.876,-495.5 133.876,-495.5 133.876,-495.5 12,-495.5 12,-495.5 6,-495.5 0,-489.5 0,-483.5 0,-483.5 0,-417.5 0,-417.5 0,-411.5 6,-405.5 12,-405.5"/>
<text text-anchor="middle" x="72.938" y="-480.3" font-family="Times,serif" font-size="14.00" fill="#000000">NotificationsController</text>
<polyline fill="none" stroke="#000000" points="0,-473.5 145.876,-473.5 "/>
<text text-anchor="start" x="8" y="-458.3" font-family="Times,serif" font-size="14.00" fill="#000000">index</text>
<polyline fill="none" stroke="#000000" points="0,-451.5 145.876,-451.5 "/>
<polyline fill="none" stroke="#000000" points="0,-427.5 145.876,-427.5 "/>
<text text-anchor="start" x="8" y="-412.3" font-family="Times,serif" font-size="14.00" fill="#000000">_layout</text>
</g>
<!-- PoemsController -->
<g id="node9" class="node">
<title>PoemsController</title>
<path fill="none" stroke="#000000" d="M27,-270.5C27,-270.5 113.8828,-270.5 113.8828,-270.5 119.8828,-270.5 125.8828,-276.5 125.8828,-282.5 125.8828,-282.5 125.8828,-362.5 125.8828,-362.5 125.8828,-368.5 119.8828,-374.5 113.8828,-374.5 113.8828,-374.5 27,-374.5 27,-374.5 21,-374.5 15,-368.5 15,-362.5 15,-362.5 15,-282.5 15,-282.5 15,-276.5 21,-270.5 27,-270.5"/>
<text text-anchor="middle" x="70.4414" y="-359.3" font-family="Times,serif" font-size="14.00" fill="#000000">PoemsController</text>
<polyline fill="none" stroke="#000000" points="15,-352.5 125.8828,-352.5 "/>
<text text-anchor="start" x="23" y="-337.3" font-family="Times,serif" font-size="14.00" fill="#000000">index</text>
<text text-anchor="start" x="23" y="-323.3" font-family="Times,serif" font-size="14.00" fill="#000000">show</text>
<polyline fill="none" stroke="#000000" points="15,-316.5 125.8828,-316.5 "/>
<polyline fill="none" stroke="#000000" points="15,-292.5 125.8828,-292.5 "/>
<text text-anchor="start" x="23" y="-277.3" font-family="Times,serif" font-size="14.00" fill="#000000">_layout</text>
</g>
<!-- RelationshipsController -->
<g id="node10" class="node">
<title>RelationshipsController</title>
<path fill="none" stroke="#000000" d="M492,-285.5C492,-285.5 617.7656,-285.5 617.7656,-285.5 623.7656,-285.5 629.7656,-291.5 629.7656,-297.5 629.7656,-297.5 629.7656,-377.5 629.7656,-377.5 629.7656,-383.5 623.7656,-389.5 617.7656,-389.5 617.7656,-389.5 492,-389.5 492,-389.5 486,-389.5 480,-383.5 480,-377.5 480,-377.5 480,-297.5 480,-297.5 480,-291.5 486,-285.5 492,-285.5"/>
<text text-anchor="middle" x="554.8828" y="-374.3" font-family="Times,serif" font-size="14.00" fill="#000000">RelationshipsController</text>
<polyline fill="none" stroke="#000000" points="480,-367.5 629.7656,-367.5 "/>
<text text-anchor="start" x="488" y="-352.3" font-family="Times,serif" font-size="14.00" fill="#000000">create</text>
<text text-anchor="start" x="488" y="-338.3" font-family="Times,serif" font-size="14.00" fill="#000000">destroy</text>
<polyline fill="none" stroke="#000000" points="480,-331.5 629.7656,-331.5 "/>
<polyline fill="none" stroke="#000000" points="480,-307.5 629.7656,-307.5 "/>
<text text-anchor="start" x="488" y="-292.3" font-family="Times,serif" font-size="14.00" fill="#000000">_layout</text>
</g>
<!-- TopController -->
<g id="node11" class="node">
<title>TopController</title>
<path fill="none" stroke="#000000" d="M567,-570.5C567,-570.5 638.1191,-570.5 638.1191,-570.5 644.1191,-570.5 650.1191,-576.5 650.1191,-582.5 650.1191,-582.5 650.1191,-648.5 650.1191,-648.5 650.1191,-654.5 644.1191,-660.5 638.1191,-660.5 638.1191,-660.5 567,-660.5 567,-660.5 561,-660.5 555,-654.5 555,-648.5 555,-648.5 555,-582.5 555,-582.5 555,-576.5 561,-570.5 567,-570.5"/>
<text text-anchor="middle" x="602.5596" y="-645.3" font-family="Times,serif" font-size="14.00" fill="#000000">TopController</text>
<polyline fill="none" stroke="#000000" points="555,-638.5 650.1191,-638.5 "/>
<text text-anchor="start" x="563" y="-623.3" font-family="Times,serif" font-size="14.00" fill="#000000">index</text>
<polyline fill="none" stroke="#000000" points="555,-616.5 650.1191,-616.5 "/>
<polyline fill="none" stroke="#000000" points="555,-592.5 650.1191,-592.5 "/>
<text text-anchor="start" x="563" y="-577.3" font-family="Times,serif" font-size="14.00" fill="#000000">_layout</text>
</g>
<!-- Users::OmniauthCallbacksController -->
<g id="node12" class="node">
<title>Users::OmniauthCallbacksController</title>
<path fill="none" stroke="#000000" d="M162,-225.5C162,-225.5 362.4072,-225.5 362.4072,-225.5 368.4072,-225.5 374.4072,-231.5 374.4072,-237.5 374.4072,-237.5 374.4072,-317.5 374.4072,-317.5 374.4072,-323.5 368.4072,-329.5 362.4072,-329.5 362.4072,-329.5 162,-329.5 162,-329.5 156,-329.5 150,-323.5 150,-317.5 150,-317.5 150,-237.5 150,-237.5 150,-231.5 156,-225.5 162,-225.5"/>
<text text-anchor="middle" x="262.2036" y="-314.3" font-family="Times,serif" font-size="14.00" fill="#000000">Users::OmniauthCallbacksController</text>
<polyline fill="none" stroke="#000000" points="150,-307.5 374.4072,-307.5 "/>
<text text-anchor="start" x="158" y="-292.3" font-family="Times,serif" font-size="14.00" fill="#000000">facebook</text>
<text text-anchor="start" x="158" y="-278.3" font-family="Times,serif" font-size="14.00" fill="#000000">twitter</text>
<polyline fill="none" stroke="#000000" points="150,-271.5 374.4072,-271.5 "/>
<polyline fill="none" stroke="#000000" points="150,-247.5 374.4072,-247.5 "/>
<text text-anchor="start" x="158" y="-232.3" font-family="Times,serif" font-size="14.00" fill="#000000">_layout</text>
</g>
<!-- Users::RegistrationsController -->
<g id="node13" class="node">
<title>Users::RegistrationsController</title>
<path fill="none" stroke="#000000" d="M102,-105.5C102,-105.5 265.0898,-105.5 265.0898,-105.5 271.0898,-105.5 277.0898,-111.5 277.0898,-117.5 277.0898,-117.5 277.0898,-183.5 277.0898,-183.5 277.0898,-189.5 271.0898,-195.5 265.0898,-195.5 265.0898,-195.5 102,-195.5 102,-195.5 96,-195.5 90,-189.5 90,-183.5 90,-183.5 90,-117.5 90,-117.5 90,-111.5 96,-105.5 102,-105.5"/>
<text text-anchor="middle" x="183.5449" y="-180.3" font-family="Times,serif" font-size="14.00" fill="#000000">Users::RegistrationsController</text>
<polyline fill="none" stroke="#000000" points="90,-173.5 277.0898,-173.5 "/>
<text text-anchor="start" x="98" y="-158.3" font-family="Times,serif" font-size="14.00" fill="#000000">build_resource</text>
<polyline fill="none" stroke="#000000" points="90,-151.5 277.0898,-151.5 "/>
<polyline fill="none" stroke="#000000" points="90,-127.5 277.0898,-127.5 "/>
<text text-anchor="start" x="98" y="-112.3" font-family="Times,serif" font-size="14.00" fill="#000000">_layout</text>
</g>
<!-- UsersController -->
<g id="node14" class="node">
<title>UsersController</title>
<path fill="none" stroke="#000000" d="M567,-.5C567,-.5 648.4277,-.5 648.4277,-.5 654.4277,-.5 660.4277,-6.5 660.4277,-12.5 660.4277,-12.5 660.4277,-92.5 660.4277,-92.5 660.4277,-98.5 654.4277,-104.5 648.4277,-104.5 648.4277,-104.5 567,-104.5 567,-104.5 561,-104.5 555,-98.5 555,-92.5 555,-92.5 555,-12.5 555,-12.5 555,-6.5 561,-.5 567,-.5"/>
<text text-anchor="middle" x="607.7139" y="-89.3" font-family="Times,serif" font-size="14.00" fill="#000000">UsersController</text>
<polyline fill="none" stroke="#000000" points="555,-82.5 660.4277,-82.5 "/>
<text text-anchor="start" x="563" y="-67.3" font-family="Times,serif" font-size="14.00" fill="#000000">index</text>
<text text-anchor="start" x="563" y="-53.3" font-family="Times,serif" font-size="14.00" fill="#000000">show</text>
<polyline fill="none" stroke="#000000" points="555,-46.5 660.4277,-46.5 "/>
<polyline fill="none" stroke="#000000" points="555,-22.5 660.4277,-22.5 "/>
<text text-anchor="start" x="563" y="-7.3" font-family="Times,serif" font-size="14.00" fill="#000000">_layout</text>
</g>
</g>
</svg>
