<?xml version="1.0" encoding="UTF-8" standalone="no"?>
<!DOCTYPE svg PUBLIC "-//W3C//DTD SVG 1.1//EN"
 "http://www.w3.org/Graphics/SVG/1.1/DTD/svg11.dtd">
<!-- Generated by graphviz version 2.40.1 (20161225.0304)
 -->
<!-- Title: controllers_diagram Pages: 1 -->
<svg width="659pt" height="637pt"
 viewBox="0.00 0.00 659.09 637.00" xmlns="http://www.w3.org/2000/svg" xmlns:xlink="http://www.w3.org/1999/xlink">
<g id="graph0" class="graph" transform="scale(1 1) rotate(0) translate(4 633)">
<title>controllers_diagram</title>
<polygon fill="transparent" stroke="transparent" points="-4,4 -4,-633 655.0898,-633 655.0898,4 -4,4"/>
<!-- _diagram_info -->
<g id="node1" class="node">
<title>_diagram_info</title>
<text text-anchor="start" x="72" y="-138.6" font-family="Times,serif" font-size="13.00" fill="#000000">Controllers diagram</text>
<text text-anchor="start" x="72" y="-125.6" font-family="Times,serif" font-size="13.00" fill="#000000">Date: May 01 2017 &#45; 14:46</text>
<text text-anchor="start" x="72" y="-112.6" font-family="Times,serif" font-size="13.00" fill="#000000">Migration version: 20170428093348</text>
<text text-anchor="start" x="72" y="-99.6" font-family="Times,serif" font-size="13.00" fill="#000000">Generated by RailRoady 1.5.2</text>
<text text-anchor="start" x="72" y="-86.6" font-family="Times,serif" font-size="13.00" fill="#000000">http://railroady.prestonlee.com</text>
</g>
<!-- ApplicationController -->
<g id="node2" class="node">
<title>ApplicationController</title>
<path fill="none" stroke="#000000" d="M380,-128.5C380,-128.5 553.9316,-128.5 553.9316,-128.5 559.9316,-128.5 565.9316,-134.5 565.9316,-140.5 565.9316,-140.5 565.9316,-222.5 565.9316,-222.5 565.9316,-228.5 559.9316,-234.5 553.9316,-234.5 553.9316,-234.5 380,-234.5 380,-234.5 374,-234.5 368,-228.5 368,-222.5 368,-222.5 368,-140.5 368,-140.5 368,-134.5 374,-128.5 380,-128.5"/>
<text text-anchor="middle" x="466.9658" y="-219.3" font-family="Times,serif" font-size="14.00" fill="#000000">ApplicationController</text>
<polyline fill="none" stroke="#000000" points="368,-212.5 565.9316,-212.5 "/>
<polyline fill="none" stroke="#000000" points="368,-188.5 565.9316,-188.5 "/>
<polyline fill="none" stroke="#000000" points="368,-164.5 565.9316,-164.5 "/>
<text text-anchor="start" x="376" y="-149.3" font-family="Times,serif" font-size="14.00" fill="#000000">_layout</text>
<text text-anchor="start" x="376" y="-135.3" font-family="Times,serif" font-size="14.00" fill="#000000">configure_permitted_parameters</text>
</g>
<!-- BlogsController -->
<g id="node3" class="node">
<title>BlogsController</title>
<path fill="none" stroke="#000000" d="M332,-336.5C332,-336.5 414.2207,-336.5 414.2207,-336.5 420.2207,-336.5 426.2207,-342.5 426.2207,-348.5 426.2207,-348.5 426.2207,-540.5 426.2207,-540.5 426.2207,-546.5 420.2207,-552.5 414.2207,-552.5 414.2207,-552.5 332,-552.5 332,-552.5 326,-552.5 320,-546.5 320,-540.5 320,-540.5 320,-348.5 320,-348.5 320,-342.5 326,-336.5 332,-336.5"/>
<text text-anchor="middle" x="373.1104" y="-537.3" font-family="Times,serif" font-size="14.00" fill="#000000">BlogsController</text>
<polyline fill="none" stroke="#000000" points="320,-530.5 426.2207,-530.5 "/>
<text text-anchor="start" x="328" y="-515.3" font-family="Times,serif" font-size="14.00" fill="#000000">update</text>
<text text-anchor="start" x="328" y="-501.3" font-family="Times,serif" font-size="14.00" fill="#000000">create</text>
<text text-anchor="start" x="328" y="-487.3" font-family="Times,serif" font-size="14.00" fill="#000000">destroy</text>
<text text-anchor="start" x="328" y="-473.3" font-family="Times,serif" font-size="14.00" fill="#000000">edit</text>
<text text-anchor="start" x="328" y="-459.3" font-family="Times,serif" font-size="14.00" fill="#000000">index</text>
<text text-anchor="start" x="328" y="-445.3" font-family="Times,serif" font-size="14.00" fill="#000000">new</text>
<text text-anchor="start" x="328" y="-431.3" font-family="Times,serif" font-size="14.00" fill="#000000">show</text>
<text text-anchor="start" x="328" y="-417.3" font-family="Times,serif" font-size="14.00" fill="#000000">confirm</text>
<polyline fill="none" stroke="#000000" points="320,-410.5 426.2207,-410.5 "/>
<polyline fill="none" stroke="#000000" points="320,-386.5 426.2207,-386.5 "/>
<text text-anchor="start" x="328" y="-371.3" font-family="Times,serif" font-size="14.00" fill="#000000">_layout</text>
<text text-anchor="start" x="328" y="-357.3" font-family="Times,serif" font-size="14.00" fill="#000000">blogs_params</text>
<text text-anchor="start" x="328" y="-343.3" font-family="Times,serif" font-size="14.00" fill="#000000">set_blog</text>
</g>
<!-- CommentsController -->
<g id="node4" class="node">
<title>CommentsController</title>
<path fill="none" stroke="#000000" d="M172,-336.5C172,-336.5 282.2139,-336.5 282.2139,-336.5 288.2139,-336.5 294.2139,-342.5 294.2139,-348.5 294.2139,-348.5 294.2139,-470.5 294.2139,-470.5 294.2139,-476.5 288.2139,-482.5 282.2139,-482.5 282.2139,-482.5 172,-482.5 172,-482.5 166,-482.5 160,-476.5 160,-470.5 160,-470.5 160,-348.5 160,-348.5 160,-342.5 166,-336.5 172,-336.5"/>
<text text-anchor="middle" x="227.1069" y="-467.3" font-family="Times,serif" font-size="14.00" fill="#000000">CommentsController</text>
<polyline fill="none" stroke="#000000" points="160,-460.5 294.2139,-460.5 "/>
<text text-anchor="start" x="168" y="-445.3" font-family="Times,serif" font-size="14.00" fill="#000000">create</text>
<text text-anchor="start" x="168" y="-431.3" font-family="Times,serif" font-size="14.00" fill="#000000">destroy</text>
<text text-anchor="start" x="168" y="-417.3" font-family="Times,serif" font-size="14.00" fill="#000000">edit</text>
<text text-anchor="start" x="168" y="-403.3" font-family="Times,serif" font-size="14.00" fill="#000000">update</text>
<polyline fill="none" stroke="#000000" points="160,-396.5 294.2139,-396.5 "/>
<polyline fill="none" stroke="#000000" points="160,-372.5 294.2139,-372.5 "/>
<text text-anchor="start" x="168" y="-357.3" font-family="Times,serif" font-size="14.00" fill="#000000">_layout</text>
<text text-anchor="start" x="168" y="-343.3" font-family="Times,serif" font-size="14.00" fill="#000000">comment_params</text>
</g>
<!-- ContactsController -->
<g id="node5" class="node">
<title>ContactsController</title>
<path fill="none" stroke="#000000" d="M12,-496.5C12,-496.5 110.5381,-496.5 110.5381,-496.5 116.5381,-496.5 122.5381,-502.5 122.5381,-508.5 122.5381,-508.5 122.5381,-616.5 122.5381,-616.5 122.5381,-622.5 116.5381,-628.5 110.5381,-628.5 110.5381,-628.5 12,-628.5 12,-628.5 6,-628.5 0,-622.5 0,-616.5 0,-616.5 0,-508.5 0,-508.5 0,-502.5 6,-496.5 12,-496.5"/>
<text text-anchor="middle" x="61.269" y="-613.3" font-family="Times,serif" font-size="14.00" fill="#000000">ContactsController</text>
<polyline fill="none" stroke="#000000" points="0,-606.5 122.5381,-606.5 "/>
<text text-anchor="start" x="8" y="-591.3" font-family="Times,serif" font-size="14.00" fill="#000000">confirm</text>
<text text-anchor="start" x="8" y="-577.3" font-family="Times,serif" font-size="14.00" fill="#000000">create</text>
<text text-anchor="start" x="8" y="-563.3" font-family="Times,serif" font-size="14.00" fill="#000000">new</text>
<polyline fill="none" stroke="#000000" points="0,-556.5 122.5381,-556.5 "/>
<polyline fill="none" stroke="#000000" points="0,-532.5 122.5381,-532.5 "/>
<text text-anchor="start" x="8" y="-517.3" font-family="Times,serif" font-size="14.00" fill="#000000">_layout</text>
<text text-anchor="start" x="8" y="-503.3" font-family="Times,serif" font-size="14.00" fill="#000000">contacts_params</text>
</g>
<!-- PoemsController -->
<g id="node6" class="node">
<title>PoemsController</title>
<path fill="none" stroke="#000000" d="M188,-512.5C188,-512.5 274.8828,-512.5 274.8828,-512.5 280.8828,-512.5 286.8828,-518.5 286.8828,-524.5 286.8828,-524.5 286.8828,-604.5 286.8828,-604.5 286.8828,-610.5 280.8828,-616.5 274.8828,-616.5 274.8828,-616.5 188,-616.5 188,-616.5 182,-616.5 176,-610.5 176,-604.5 176,-604.5 176,-524.5 176,-524.5 176,-518.5 182,-512.5 188,-512.5"/>
<text text-anchor="middle" x="231.4414" y="-601.3" font-family="Times,serif" font-size="14.00" fill="#000000">PoemsController</text>
<polyline fill="none" stroke="#000000" points="176,-594.5 286.8828,-594.5 "/>
<text text-anchor="start" x="184" y="-579.3" font-family="Times,serif" font-size="14.00" fill="#000000">index</text>
<text text-anchor="start" x="184" y="-565.3" font-family="Times,serif" font-size="14.00" fill="#000000">show</text>
<polyline fill="none" stroke="#000000" points="176,-558.5 286.8828,-558.5 "/>
<polyline fill="none" stroke="#000000" points="176,-534.5 286.8828,-534.5 "/>
<text text-anchor="start" x="184" y="-519.3" font-family="Times,serif" font-size="14.00" fill="#000000">_layout</text>
</g>
<!-- RelationshipsController -->
<g id="node7" class="node">
<title>RelationshipsController</title>
<path fill="none" stroke="#000000" d="M476,-400.5C476,-400.5 601.7656,-400.5 601.7656,-400.5 607.7656,-400.5 613.7656,-406.5 613.7656,-412.5 613.7656,-412.5 613.7656,-492.5 613.7656,-492.5 613.7656,-498.5 607.7656,-504.5 601.7656,-504.5 601.7656,-504.5 476,-504.5 476,-504.5 470,-504.5 464,-498.5 464,-492.5 464,-492.5 464,-412.5 464,-412.5 464,-406.5 470,-400.5 476,-400.5"/>
<text text-anchor="middle" x="538.8828" y="-489.3" font-family="Times,serif" font-size="14.00" fill="#000000">RelationshipsController</text>
<polyline fill="none" stroke="#000000" points="464,-482.5 613.7656,-482.5 "/>
<text text-anchor="start" x="472" y="-467.3" font-family="Times,serif" font-size="14.00" fill="#000000">create</text>
<text text-anchor="start" x="472" y="-453.3" font-family="Times,serif" font-size="14.00" fill="#000000">destroy</text>
<polyline fill="none" stroke="#000000" points="464,-446.5 613.7656,-446.5 "/>
<polyline fill="none" stroke="#000000" points="464,-422.5 613.7656,-422.5 "/>
<text text-anchor="start" x="472" y="-407.3" font-family="Times,serif" font-size="14.00" fill="#000000">_layout</text>
</g>
<!-- TopController -->
<g id="node8" class="node">
<title>TopController</title>
<path fill="none" stroke="#000000" d="M316,-.5C316,-.5 387.1191,-.5 387.1191,-.5 393.1191,-.5 399.1191,-6.5 399.1191,-12.5 399.1191,-12.5 399.1191,-78.5 399.1191,-78.5 399.1191,-84.5 393.1191,-90.5 387.1191,-90.5 387.1191,-90.5 316,-90.5 316,-90.5 310,-90.5 304,-84.5 304,-78.5 304,-78.5 304,-12.5 304,-12.5 304,-6.5 310,-.5 316,-.5"/>
<text text-anchor="middle" x="351.5596" y="-75.3" font-family="Times,serif" font-size="14.00" fill="#000000">TopController</text>
<polyline fill="none" stroke="#000000" points="304,-68.5 399.1191,-68.5 "/>
<text text-anchor="start" x="312" y="-53.3" font-family="Times,serif" font-size="14.00" fill="#000000">index</text>
<polyline fill="none" stroke="#000000" points="304,-46.5 399.1191,-46.5 "/>
<polyline fill="none" stroke="#000000" points="304,-22.5 399.1191,-22.5 "/>
<text text-anchor="start" x="312" y="-7.3" font-family="Times,serif" font-size="14.00" fill="#000000">_layout</text>
</g>
<!-- Users::OmniauthCallbacksController -->
<g id="node9" class="node">
<title>Users::OmniauthCallbacksController</title>
<path fill="none" stroke="#000000" d="M124,-192.5C124,-192.5 324.4072,-192.5 324.4072,-192.5 330.4072,-192.5 336.4072,-198.5 336.4072,-204.5 336.4072,-204.5 336.4072,-284.5 336.4072,-284.5 336.4072,-290.5 330.4072,-296.5 324.4072,-296.5 324.4072,-296.5 124,-296.5 124,-296.5 118,-296.5 112,-290.5 112,-284.5 112,-284.5 112,-204.5 112,-204.5 112,-198.5 118,-192.5 124,-192.5"/>
<text text-anchor="middle" x="224.2036" y="-281.3" font-family="Times,serif" font-size="14.00" fill="#000000">Users::OmniauthCallbacksController</text>
<polyline fill="none" stroke="#000000" points="112,-274.5 336.4072,-274.5 "/>
<text text-anchor="start" x="120" y="-259.3" font-family="Times,serif" font-size="14.00" fill="#000000">facebook</text>
<text text-anchor="start" x="120" y="-245.3" font-family="Times,serif" font-size="14.00" fill="#000000">twitter</text>
<polyline fill="none" stroke="#000000" points="112,-238.5 336.4072,-238.5 "/>
<polyline fill="none" stroke="#000000" points="112,-214.5 336.4072,-214.5 "/>
<text text-anchor="start" x="120" y="-199.3" font-family="Times,serif" font-size="14.00" fill="#000000">_layout</text>
</g>
<!-- Users::RegistrationsController -->
<g id="node10" class="node">
<title>Users::RegistrationsController</title>
<path fill="none" stroke="#000000" d="M476,-272.5C476,-272.5 639.0898,-272.5 639.0898,-272.5 645.0898,-272.5 651.0898,-278.5 651.0898,-284.5 651.0898,-284.5 651.0898,-350.5 651.0898,-350.5 651.0898,-356.5 645.0898,-362.5 639.0898,-362.5 639.0898,-362.5 476,-362.5 476,-362.5 470,-362.5 464,-356.5 464,-350.5 464,-350.5 464,-284.5 464,-284.5 464,-278.5 470,-272.5 476,-272.5"/>
<text text-anchor="middle" x="557.5449" y="-347.3" font-family="Times,serif" font-size="14.00" fill="#000000">Users::RegistrationsController</text>
<polyline fill="none" stroke="#000000" points="464,-340.5 651.0898,-340.5 "/>
<text text-anchor="start" x="472" y="-325.3" font-family="Times,serif" font-size="14.00" fill="#000000">build_resource</text>
<polyline fill="none" stroke="#000000" points="464,-318.5 651.0898,-318.5 "/>
<polyline fill="none" stroke="#000000" points="464,-294.5 651.0898,-294.5 "/>
<text text-anchor="start" x="472" y="-279.3" font-family="Times,serif" font-size="14.00" fill="#000000">_layout</text>
</g>
<!-- UsersController -->
<g id="node11" class="node">
<title>UsersController</title>
<path fill="none" stroke="#000000" d="M28,-352.5C28,-352.5 109.4277,-352.5 109.4277,-352.5 115.4277,-352.5 121.4277,-358.5 121.4277,-364.5 121.4277,-364.5 121.4277,-444.5 121.4277,-444.5 121.4277,-450.5 115.4277,-456.5 109.4277,-456.5 109.4277,-456.5 28,-456.5 28,-456.5 22,-456.5 16,-450.5 16,-444.5 16,-444.5 16,-364.5 16,-364.5 16,-358.5 22,-352.5 28,-352.5"/>
<text text-anchor="middle" x="68.7139" y="-441.3" font-family="Times,serif" font-size="14.00" fill="#000000">UsersController</text>
<polyline fill="none" stroke="#000000" points="16,-434.5 121.4277,-434.5 "/>
<text text-anchor="start" x="24" y="-419.3" font-family="Times,serif" font-size="14.00" fill="#000000">index</text>
<text text-anchor="start" x="24" y="-405.3" font-family="Times,serif" font-size="14.00" fill="#000000">show</text>
<polyline fill="none" stroke="#000000" points="16,-398.5 121.4277,-398.5 "/>
<polyline fill="none" stroke="#000000" points="16,-374.5 121.4277,-374.5 "/>
<text text-anchor="start" x="24" y="-359.3" font-family="Times,serif" font-size="14.00" fill="#000000">_layout</text>
</g>
</g>
</svg>
