<?xml version="1.0" encoding="UTF-8" standalone="no"?>
<!DOCTYPE svg PUBLIC "-//W3C//DTD SVG 1.1//EN"
 "http://www.w3.org/Graphics/SVG/1.1/DTD/svg11.dtd">
<!-- Generated by graphviz version 2.40.1 (20161225.0304)
 -->
<!-- Title: controllers_diagram Pages: 1 -->
<svg width="643pt" height="513pt"
 viewBox="0.00 0.00 643.09 513.00" xmlns="http://www.w3.org/2000/svg" xmlns:xlink="http://www.w3.org/1999/xlink">
<g id="graph0" class="graph" transform="scale(1 1) rotate(0) translate(4 509)">
<title>controllers_diagram</title>
<polygon fill="transparent" stroke="transparent" points="-4,4 -4,-509 639.0898,-509 639.0898,4 -4,4"/>
<!-- _diagram_info -->
<g id="node1" class="node">
<title>_diagram_info</title>
<text text-anchor="start" x="56" y="-58.6" font-family="Times,serif" font-size="13.00" fill="#000000">Controllers diagram</text>
<text text-anchor="start" x="56" y="-45.6" font-family="Times,serif" font-size="13.00" fill="#000000">Date: Apr 29 2017 &#45; 15:56</text>
<text text-anchor="start" x="56" y="-32.6" font-family="Times,serif" font-size="13.00" fill="#000000">Migration version: 20170428093348</text>
<text text-anchor="start" x="56" y="-19.6" font-family="Times,serif" font-size="13.00" fill="#000000">Generated by RailRoady 1.5.2</text>
<text text-anchor="start" x="56" y="-6.6" font-family="Times,serif" font-size="13.00" fill="#000000">http://railroady.prestonlee.com</text>
</g>
<!-- ApplicationController -->
<g id="node2" class="node">
<title>ApplicationController</title>
<path fill="none" stroke="#000000" d="M364,-48.5C364,-48.5 537.9316,-48.5 537.9316,-48.5 543.9316,-48.5 549.9316,-54.5 549.9316,-60.5 549.9316,-60.5 549.9316,-142.5 549.9316,-142.5 549.9316,-148.5 543.9316,-154.5 537.9316,-154.5 537.9316,-154.5 364,-154.5 364,-154.5 358,-154.5 352,-148.5 352,-142.5 352,-142.5 352,-60.5 352,-60.5 352,-54.5 358,-48.5 364,-48.5"/>
<text text-anchor="middle" x="450.9658" y="-139.3" font-family="Times,serif" font-size="14.00" fill="#000000">ApplicationController</text>
<polyline fill="none" stroke="#000000" points="352,-132.5 549.9316,-132.5 "/>
<polyline fill="none" stroke="#000000" points="352,-108.5 549.9316,-108.5 "/>
<polyline fill="none" stroke="#000000" points="352,-84.5 549.9316,-84.5 "/>
<text text-anchor="start" x="360" y="-69.3" font-family="Times,serif" font-size="14.00" fill="#000000">_layout</text>
<text text-anchor="start" x="360" y="-55.3" font-family="Times,serif" font-size="14.00" fill="#000000">configure_permitted_parameters</text>
</g>
<!-- BlogsController -->
<g id="node3" class="node">
<title>BlogsController</title>
<path fill="none" stroke="#000000" d="M316,-256.5C316,-256.5 398.2207,-256.5 398.2207,-256.5 404.2207,-256.5 410.2207,-262.5 410.2207,-268.5 410.2207,-268.5 410.2207,-460.5 410.2207,-460.5 410.2207,-466.5 404.2207,-472.5 398.2207,-472.5 398.2207,-472.5 316,-472.5 316,-472.5 310,-472.5 304,-466.5 304,-460.5 304,-460.5 304,-268.5 304,-268.5 304,-262.5 310,-256.5 316,-256.5"/>
<text text-anchor="middle" x="357.1104" y="-457.3" font-family="Times,serif" font-size="14.00" fill="#000000">BlogsController</text>
<polyline fill="none" stroke="#000000" points="304,-450.5 410.2207,-450.5 "/>
<text text-anchor="start" x="312" y="-435.3" font-family="Times,serif" font-size="14.00" fill="#000000">update</text>
<text text-anchor="start" x="312" y="-421.3" font-family="Times,serif" font-size="14.00" fill="#000000">create</text>
<text text-anchor="start" x="312" y="-407.3" font-family="Times,serif" font-size="14.00" fill="#000000">destroy</text>
<text text-anchor="start" x="312" y="-393.3" font-family="Times,serif" font-size="14.00" fill="#000000">edit</text>
<text text-anchor="start" x="312" y="-379.3" font-family="Times,serif" font-size="14.00" fill="#000000">index</text>
<text text-anchor="start" x="312" y="-365.3" font-family="Times,serif" font-size="14.00" fill="#000000">new</text>
<text text-anchor="start" x="312" y="-351.3" font-family="Times,serif" font-size="14.00" fill="#000000">show</text>
<text text-anchor="start" x="312" y="-337.3" font-family="Times,serif" font-size="14.00" fill="#000000">confirm</text>
<polyline fill="none" stroke="#000000" points="304,-330.5 410.2207,-330.5 "/>
<polyline fill="none" stroke="#000000" points="304,-306.5 410.2207,-306.5 "/>
<text text-anchor="start" x="312" y="-291.3" font-family="Times,serif" font-size="14.00" fill="#000000">_layout</text>
<text text-anchor="start" x="312" y="-277.3" font-family="Times,serif" font-size="14.00" fill="#000000">blogs_params</text>
<text text-anchor="start" x="312" y="-263.3" font-family="Times,serif" font-size="14.00" fill="#000000">set_blog</text>
</g>
<!-- CommentsController -->
<g id="node4" class="node">
<title>CommentsController</title>
<path fill="none" stroke="#000000" d="M156,-256.5C156,-256.5 266.2139,-256.5 266.2139,-256.5 272.2139,-256.5 278.2139,-262.5 278.2139,-268.5 278.2139,-268.5 278.2139,-390.5 278.2139,-390.5 278.2139,-396.5 272.2139,-402.5 266.2139,-402.5 266.2139,-402.5 156,-402.5 156,-402.5 150,-402.5 144,-396.5 144,-390.5 144,-390.5 144,-268.5 144,-268.5 144,-262.5 150,-256.5 156,-256.5"/>
<text text-anchor="middle" x="211.1069" y="-387.3" font-family="Times,serif" font-size="14.00" fill="#000000">CommentsController</text>
<polyline fill="none" stroke="#000000" points="144,-380.5 278.2139,-380.5 "/>
<text text-anchor="start" x="152" y="-365.3" font-family="Times,serif" font-size="14.00" fill="#000000">create</text>
<text text-anchor="start" x="152" y="-351.3" font-family="Times,serif" font-size="14.00" fill="#000000">destroy</text>
<text text-anchor="start" x="152" y="-337.3" font-family="Times,serif" font-size="14.00" fill="#000000">edit</text>
<text text-anchor="start" x="152" y="-323.3" font-family="Times,serif" font-size="14.00" fill="#000000">update</text>
<polyline fill="none" stroke="#000000" points="144,-316.5 278.2139,-316.5 "/>
<polyline fill="none" stroke="#000000" points="144,-292.5 278.2139,-292.5 "/>
<text text-anchor="start" x="152" y="-277.3" font-family="Times,serif" font-size="14.00" fill="#000000">_layout</text>
<text text-anchor="start" x="152" y="-263.3" font-family="Times,serif" font-size="14.00" fill="#000000">comment_params</text>
</g>
<!-- ContactsController -->
<g id="node5" class="node">
<title>ContactsController</title>
<path fill="none" stroke="#000000" d="M460,-320.5C460,-320.5 558.5381,-320.5 558.5381,-320.5 564.5381,-320.5 570.5381,-326.5 570.5381,-332.5 570.5381,-332.5 570.5381,-440.5 570.5381,-440.5 570.5381,-446.5 564.5381,-452.5 558.5381,-452.5 558.5381,-452.5 460,-452.5 460,-452.5 454,-452.5 448,-446.5 448,-440.5 448,-440.5 448,-332.5 448,-332.5 448,-326.5 454,-320.5 460,-320.5"/>
<text text-anchor="middle" x="509.269" y="-437.3" font-family="Times,serif" font-size="14.00" fill="#000000">ContactsController</text>
<polyline fill="none" stroke="#000000" points="448,-430.5 570.5381,-430.5 "/>
<text text-anchor="start" x="456" y="-415.3" font-family="Times,serif" font-size="14.00" fill="#000000">confirm</text>
<text text-anchor="start" x="456" y="-401.3" font-family="Times,serif" font-size="14.00" fill="#000000">create</text>
<text text-anchor="start" x="456" y="-387.3" font-family="Times,serif" font-size="14.00" fill="#000000">new</text>
<polyline fill="none" stroke="#000000" points="448,-380.5 570.5381,-380.5 "/>
<polyline fill="none" stroke="#000000" points="448,-356.5 570.5381,-356.5 "/>
<text text-anchor="start" x="456" y="-341.3" font-family="Times,serif" font-size="14.00" fill="#000000">_layout</text>
<text text-anchor="start" x="456" y="-327.3" font-family="Times,serif" font-size="14.00" fill="#000000">contacts_params</text>
</g>
<!-- PoemsController -->
<g id="node6" class="node">
<title>PoemsController</title>
<path fill="none" stroke="#000000" d="M12,-400.5C12,-400.5 98.8828,-400.5 98.8828,-400.5 104.8828,-400.5 110.8828,-406.5 110.8828,-412.5 110.8828,-412.5 110.8828,-492.5 110.8828,-492.5 110.8828,-498.5 104.8828,-504.5 98.8828,-504.5 98.8828,-504.5 12,-504.5 12,-504.5 6,-504.5 0,-498.5 0,-492.5 0,-492.5 0,-412.5 0,-412.5 0,-406.5 6,-400.5 12,-400.5"/>
<text text-anchor="middle" x="55.4414" y="-489.3" font-family="Times,serif" font-size="14.00" fill="#000000">PoemsController</text>
<polyline fill="none" stroke="#000000" points="0,-482.5 110.8828,-482.5 "/>
<text text-anchor="start" x="8" y="-467.3" font-family="Times,serif" font-size="14.00" fill="#000000">index</text>
<text text-anchor="start" x="8" y="-453.3" font-family="Times,serif" font-size="14.00" fill="#000000">show</text>
<polyline fill="none" stroke="#000000" points="0,-446.5 110.8828,-446.5 "/>
<polyline fill="none" stroke="#000000" points="0,-422.5 110.8828,-422.5 "/>
<text text-anchor="start" x="8" y="-407.3" font-family="Times,serif" font-size="14.00" fill="#000000">_layout</text>
</g>
<!-- TopController -->
<g id="node7" class="node">
<title>TopController</title>
<path fill="none" stroke="#000000" d="M28,-272.5C28,-272.5 99.1191,-272.5 99.1191,-272.5 105.1191,-272.5 111.1191,-278.5 111.1191,-284.5 111.1191,-284.5 111.1191,-350.5 111.1191,-350.5 111.1191,-356.5 105.1191,-362.5 99.1191,-362.5 99.1191,-362.5 28,-362.5 28,-362.5 22,-362.5 16,-356.5 16,-350.5 16,-350.5 16,-284.5 16,-284.5 16,-278.5 22,-272.5 28,-272.5"/>
<text text-anchor="middle" x="63.5596" y="-347.3" font-family="Times,serif" font-size="14.00" fill="#000000">TopController</text>
<polyline fill="none" stroke="#000000" points="16,-340.5 111.1191,-340.5 "/>
<text text-anchor="start" x="24" y="-325.3" font-family="Times,serif" font-size="14.00" fill="#000000">index</text>
<polyline fill="none" stroke="#000000" points="16,-318.5 111.1191,-318.5 "/>
<polyline fill="none" stroke="#000000" points="16,-294.5 111.1191,-294.5 "/>
<text text-anchor="start" x="24" y="-279.3" font-family="Times,serif" font-size="14.00" fill="#000000">_layout</text>
</g>
<!-- Users::OmniauthCallbacksController -->
<g id="node8" class="node">
<title>Users::OmniauthCallbacksController</title>
<path fill="none" stroke="#000000" d="M108,-112.5C108,-112.5 308.4072,-112.5 308.4072,-112.5 314.4072,-112.5 320.4072,-118.5 320.4072,-124.5 320.4072,-124.5 320.4072,-204.5 320.4072,-204.5 320.4072,-210.5 314.4072,-216.5 308.4072,-216.5 308.4072,-216.5 108,-216.5 108,-216.5 102,-216.5 96,-210.5 96,-204.5 96,-204.5 96,-124.5 96,-124.5 96,-118.5 102,-112.5 108,-112.5"/>
<text text-anchor="middle" x="208.2036" y="-201.3" font-family="Times,serif" font-size="14.00" fill="#000000">Users::OmniauthCallbacksController</text>
<polyline fill="none" stroke="#000000" points="96,-194.5 320.4072,-194.5 "/>
<text text-anchor="start" x="104" y="-179.3" font-family="Times,serif" font-size="14.00" fill="#000000">facebook</text>
<text text-anchor="start" x="104" y="-165.3" font-family="Times,serif" font-size="14.00" fill="#000000">twitter</text>
<polyline fill="none" stroke="#000000" points="96,-158.5 320.4072,-158.5 "/>
<polyline fill="none" stroke="#000000" points="96,-134.5 320.4072,-134.5 "/>
<text text-anchor="start" x="104" y="-119.3" font-family="Times,serif" font-size="14.00" fill="#000000">_layout</text>
</g>
<!-- Users::RegistrationsController -->
<g id="node9" class="node">
<title>Users::RegistrationsController</title>
<path fill="none" stroke="#000000" d="M460,-192.5C460,-192.5 623.0898,-192.5 623.0898,-192.5 629.0898,-192.5 635.0898,-198.5 635.0898,-204.5 635.0898,-204.5 635.0898,-270.5 635.0898,-270.5 635.0898,-276.5 629.0898,-282.5 623.0898,-282.5 623.0898,-282.5 460,-282.5 460,-282.5 454,-282.5 448,-276.5 448,-270.5 448,-270.5 448,-204.5 448,-204.5 448,-198.5 454,-192.5 460,-192.5"/>
<text text-anchor="middle" x="541.5449" y="-267.3" font-family="Times,serif" font-size="14.00" fill="#000000">Users::RegistrationsController</text>
<polyline fill="none" stroke="#000000" points="448,-260.5 635.0898,-260.5 "/>
<text text-anchor="start" x="456" y="-245.3" font-family="Times,serif" font-size="14.00" fill="#000000">build_resource</text>
<polyline fill="none" stroke="#000000" points="448,-238.5 635.0898,-238.5 "/>
<polyline fill="none" stroke="#000000" points="448,-214.5 635.0898,-214.5 "/>
<text text-anchor="start" x="456" y="-199.3" font-family="Times,serif" font-size="14.00" fill="#000000">_layout</text>
</g>
</g>
</svg>
