<?xml version="1.0" encoding="UTF-8" standalone="no"?>
<!DOCTYPE svg PUBLIC "-//W3C//DTD SVG 1.1//EN"
 "http://www.w3.org/Graphics/SVG/1.1/DTD/svg11.dtd">
<!-- Generated by graphviz version 2.40.1 (20161225.0304)
 -->
<!-- Title: models_diagram Pages: 1 -->
<svg width="1403pt" height="844pt"
 viewBox="0.00 0.00 1402.69 844.00" xmlns="http://www.w3.org/2000/svg" xmlns:xlink="http://www.w3.org/1999/xlink">
<g id="graph0" class="graph" transform="scale(1 1) rotate(0) translate(4 840)">
<title>models_diagram</title>
<polygon fill="transparent" stroke="transparent" points="-4,4 -4,-840 1398.6877,-840 1398.6877,4 -4,4"/>
<!-- _diagram_info -->
<g id="node1" class="node">
<title>_diagram_info</title>
<text text-anchor="start" x="8" y="-681.6" font-family="Times,serif" font-size="13.00" fill="#000000">Models diagram</text>
<text text-anchor="start" x="8" y="-668.6" font-family="Times,serif" font-size="13.00" fill="#000000">Date: May 10 2017 &#45; 20:55</text>
<text text-anchor="start" x="8" y="-655.6" font-family="Times,serif" font-size="13.00" fill="#000000">Migration version: 20170502074945</text>
<text text-anchor="start" x="8" y="-642.6" font-family="Times,serif" font-size="13.00" fill="#000000">Generated by RailRoady 1.5.2</text>
<text text-anchor="start" x="8" y="-629.6" font-family="Times,serif" font-size="13.00" fill="#000000">http://railroady.prestonlee.com</text>
</g>
<!-- Ability -->
<g id="node2" class="node">
<title>Ability</title>
<polygon fill="none" stroke="#000000" points="225.8533,-637.5 225.8533,-681.5 281.5222,-681.5 281.5222,-637.5 225.8533,-637.5"/>
<text text-anchor="middle" x="253.6877" y="-666.3" font-family="Times,serif" font-size="14.00" fill="#000000">Ability</text>
<polyline fill="none" stroke="#000000" points="225.8533,-659.5 281.5222,-659.5 "/>
<text text-anchor="middle" x="253.6877" y="-644.3" font-family="Times,serif" font-size="14.00" fill="#000000"> </text>
</g>
<!-- Blog -->
<g id="node3" class="node">
<title>Blog</title>
<path fill="none" stroke="#000000" d="M170.8254,-311.5C170.8254,-311.5 394.55,-311.5 394.55,-311.5 400.55,-311.5 406.55,-317.5 406.55,-323.5 406.55,-323.5 406.55,-413.5 406.55,-413.5 406.55,-419.5 400.55,-425.5 394.55,-425.5 394.55,-425.5 170.8254,-425.5 170.8254,-425.5 164.8254,-425.5 158.8254,-419.5 158.8254,-413.5 158.8254,-413.5 158.8254,-323.5 158.8254,-323.5 158.8254,-317.5 164.8254,-311.5 170.8254,-311.5"/>
<text text-anchor="middle" x="282.6877" y="-410.3" font-family="Times,serif" font-size="14.00" fill="#000000">Blog</text>
<polyline fill="none" stroke="#000000" points="158.8254,-403.5 406.55,-403.5 "/>
<text text-anchor="start" x="166.8254" y="-388.3" font-family="Times,serif" font-size="14.00" fill="#000000">id :integer</text>
<text text-anchor="start" x="166.8254" y="-374.3" font-family="Times,serif" font-size="14.00" fill="#000000">title :character varying</text>
<text text-anchor="start" x="166.8254" y="-360.3" font-family="Times,serif" font-size="14.00" fill="#000000">content :text</text>
<text text-anchor="start" x="166.8254" y="-346.3" font-family="Times,serif" font-size="14.00" fill="#000000">created_at :timestamp without time zone</text>
<text text-anchor="start" x="166.8254" y="-332.3" font-family="Times,serif" font-size="14.00" fill="#000000">updated_at :timestamp without time zone</text>
<text text-anchor="start" x="166.8254" y="-318.3" font-family="Times,serif" font-size="14.00" fill="#000000">user_id :integer</text>
</g>
<!-- Comment -->
<g id="node4" class="node">
<title>Comment</title>
<path fill="none" stroke="#000000" d="M246.8254,-152.5C246.8254,-152.5 470.55,-152.5 470.55,-152.5 476.55,-152.5 482.55,-158.5 482.55,-164.5 482.55,-164.5 482.55,-254.5 482.55,-254.5 482.55,-260.5 476.55,-266.5 470.55,-266.5 470.55,-266.5 246.8254,-266.5 246.8254,-266.5 240.8254,-266.5 234.8254,-260.5 234.8254,-254.5 234.8254,-254.5 234.8254,-164.5 234.8254,-164.5 234.8254,-158.5 240.8254,-152.5 246.8254,-152.5"/>
<text text-anchor="middle" x="358.6877" y="-251.3" font-family="Times,serif" font-size="14.00" fill="#000000">Comment</text>
<polyline fill="none" stroke="#000000" points="234.8254,-244.5 482.55,-244.5 "/>
<text text-anchor="start" x="242.8254" y="-229.3" font-family="Times,serif" font-size="14.00" fill="#000000">id :integer</text>
<text text-anchor="start" x="242.8254" y="-215.3" font-family="Times,serif" font-size="14.00" fill="#000000">user_id :integer</text>
<text text-anchor="start" x="242.8254" y="-201.3" font-family="Times,serif" font-size="14.00" fill="#000000">blog_id :integer</text>
<text text-anchor="start" x="242.8254" y="-187.3" font-family="Times,serif" font-size="14.00" fill="#000000">content :text</text>
<text text-anchor="start" x="242.8254" y="-173.3" font-family="Times,serif" font-size="14.00" fill="#000000">created_at :timestamp without time zone</text>
<text text-anchor="start" x="242.8254" y="-159.3" font-family="Times,serif" font-size="14.00" fill="#000000">updated_at :timestamp without time zone</text>
</g>
<!-- Blog&#45;&gt;Comment -->
<g id="edge1" class="edge">
<title>Blog&#45;&gt;Comment</title>
<path fill="none" stroke="#261d01" d="M313.7389,-303.5377C318.1333,-294.3443 322.6559,-284.8823 327.061,-275.6665"/>
<ellipse fill="none" stroke="#261d01" cx="311.8505" cy="-307.4884" rx="4" ry="4"/>
<polygon fill="#261d01" stroke="#261d01" points="327.1051,-275.574 335.4778,-268.4924 329.2614,-271.0629 331.4177,-266.5517 331.4177,-266.5517 331.4177,-266.5517 329.2614,-271.0629 327.3577,-264.6111 327.1051,-275.574 327.1051,-275.574"/>
</g>
<!-- Notification -->
<g id="node8" class="node">
<title>Notification</title>
<path fill="none" stroke="#000000" d="M246.8254,-.5C246.8254,-.5 470.55,-.5 470.55,-.5 476.55,-.5 482.55,-6.5 482.55,-12.5 482.55,-12.5 482.55,-102.5 482.55,-102.5 482.55,-108.5 476.55,-114.5 470.55,-114.5 470.55,-114.5 246.8254,-114.5 246.8254,-114.5 240.8254,-114.5 234.8254,-108.5 234.8254,-102.5 234.8254,-102.5 234.8254,-12.5 234.8254,-12.5 234.8254,-6.5 240.8254,-.5 246.8254,-.5"/>
<text text-anchor="middle" x="358.6877" y="-99.3" font-family="Times,serif" font-size="14.00" fill="#000000">Notification</text>
<polyline fill="none" stroke="#000000" points="234.8254,-92.5 482.55,-92.5 "/>
<text text-anchor="start" x="242.8254" y="-77.3" font-family="Times,serif" font-size="14.00" fill="#000000">id :integer</text>
<text text-anchor="start" x="242.8254" y="-63.3" font-family="Times,serif" font-size="14.00" fill="#000000">read :boolean</text>
<text text-anchor="start" x="242.8254" y="-49.3" font-family="Times,serif" font-size="14.00" fill="#000000">user_id :integer</text>
<text text-anchor="start" x="242.8254" y="-35.3" font-family="Times,serif" font-size="14.00" fill="#000000">comment_id :integer</text>
<text text-anchor="start" x="242.8254" y="-21.3" font-family="Times,serif" font-size="14.00" fill="#000000">created_at :timestamp without time zone</text>
<text text-anchor="start" x="242.8254" y="-7.3" font-family="Times,serif" font-size="14.00" fill="#000000">updated_at :timestamp without time zone</text>
</g>
<!-- Comment&#45;&gt;Notification -->
<g id="edge2" class="edge">
<title>Comment&#45;&gt;Notification</title>
<path fill="none" stroke="#7fba9b" d="M358.6877,-144.2538C358.6877,-137.7792 358.6877,-131.1983 358.6877,-124.7042"/>
<ellipse fill="none" stroke="#7fba9b" cx="358.6878" cy="-148.4684" rx="4" ry="4"/>
<polygon fill="#7fba9b" stroke="#7fba9b" points="358.6878,-124.5984 363.1877,-114.5984 358.6878,-119.5984 358.6877,-114.5984 358.6877,-114.5984 358.6877,-114.5984 358.6878,-119.5984 354.1877,-114.5985 358.6878,-124.5984 358.6878,-124.5984"/>
</g>
<!-- Contact -->
<g id="node5" class="node">
<title>Contact</title>
<path fill="none" stroke="#000000" d="M820.8254,-602.5C820.8254,-602.5 1044.55,-602.5 1044.55,-602.5 1050.55,-602.5 1056.55,-608.5 1056.55,-614.5 1056.55,-614.5 1056.55,-704.5 1056.55,-704.5 1056.55,-710.5 1050.55,-716.5 1044.55,-716.5 1044.55,-716.5 820.8254,-716.5 820.8254,-716.5 814.8254,-716.5 808.8254,-710.5 808.8254,-704.5 808.8254,-704.5 808.8254,-614.5 808.8254,-614.5 808.8254,-608.5 814.8254,-602.5 820.8254,-602.5"/>
<text text-anchor="middle" x="932.6877" y="-701.3" font-family="Times,serif" font-size="14.00" fill="#000000">Contact</text>
<polyline fill="none" stroke="#000000" points="808.8254,-694.5 1056.55,-694.5 "/>
<text text-anchor="start" x="816.8254" y="-679.3" font-family="Times,serif" font-size="14.00" fill="#000000">id :integer</text>
<text text-anchor="start" x="816.8254" y="-665.3" font-family="Times,serif" font-size="14.00" fill="#000000">name :character varying</text>
<text text-anchor="start" x="816.8254" y="-651.3" font-family="Times,serif" font-size="14.00" fill="#000000">email :character varying</text>
<text text-anchor="start" x="816.8254" y="-637.3" font-family="Times,serif" font-size="14.00" fill="#000000">content :text</text>
<text text-anchor="start" x="816.8254" y="-623.3" font-family="Times,serif" font-size="14.00" fill="#000000">created_at :timestamp without time zone</text>
<text text-anchor="start" x="816.8254" y="-609.3" font-family="Times,serif" font-size="14.00" fill="#000000">updated_at :timestamp without time zone</text>
</g>
<!-- Conversation -->
<g id="node6" class="node">
<title>Conversation</title>
<path fill="none" stroke="#000000" d="M1086.8254,-609.5C1086.8254,-609.5 1310.55,-609.5 1310.55,-609.5 1316.55,-609.5 1322.55,-615.5 1322.55,-621.5 1322.55,-621.5 1322.55,-697.5 1322.55,-697.5 1322.55,-703.5 1316.55,-709.5 1310.55,-709.5 1310.55,-709.5 1086.8254,-709.5 1086.8254,-709.5 1080.8254,-709.5 1074.8254,-703.5 1074.8254,-697.5 1074.8254,-697.5 1074.8254,-621.5 1074.8254,-621.5 1074.8254,-615.5 1080.8254,-609.5 1086.8254,-609.5"/>
<text text-anchor="middle" x="1198.6877" y="-694.3" font-family="Times,serif" font-size="14.00" fill="#000000">Conversation</text>
<polyline fill="none" stroke="#000000" points="1074.8254,-687.5 1322.55,-687.5 "/>
<text text-anchor="start" x="1082.8254" y="-672.3" font-family="Times,serif" font-size="14.00" fill="#000000">id :integer</text>
<text text-anchor="start" x="1082.8254" y="-658.3" font-family="Times,serif" font-size="14.00" fill="#000000">sender_id :integer</text>
<text text-anchor="start" x="1082.8254" y="-644.3" font-family="Times,serif" font-size="14.00" fill="#000000">recipient_id :integer</text>
<text text-anchor="start" x="1082.8254" y="-630.3" font-family="Times,serif" font-size="14.00" fill="#000000">created_at :timestamp without time zone</text>
<text text-anchor="start" x="1082.8254" y="-616.3" font-family="Times,serif" font-size="14.00" fill="#000000">updated_at :timestamp without time zone</text>
</g>
<!-- Message -->
<g id="node7" class="node">
<title>Message</title>
<path fill="none" stroke="#000000" d="M1086.8254,-304.5C1086.8254,-304.5 1310.55,-304.5 1310.55,-304.5 1316.55,-304.5 1322.55,-310.5 1322.55,-316.5 1322.55,-316.5 1322.55,-420.5 1322.55,-420.5 1322.55,-426.5 1316.55,-432.5 1310.55,-432.5 1310.55,-432.5 1086.8254,-432.5 1086.8254,-432.5 1080.8254,-432.5 1074.8254,-426.5 1074.8254,-420.5 1074.8254,-420.5 1074.8254,-316.5 1074.8254,-316.5 1074.8254,-310.5 1080.8254,-304.5 1086.8254,-304.5"/>
<text text-anchor="middle" x="1198.6877" y="-417.3" font-family="Times,serif" font-size="14.00" fill="#000000">Message</text>
<polyline fill="none" stroke="#000000" points="1074.8254,-410.5 1322.55,-410.5 "/>
<text text-anchor="start" x="1082.8254" y="-395.3" font-family="Times,serif" font-size="14.00" fill="#000000">user_id :integer</text>
<text text-anchor="start" x="1082.8254" y="-381.3" font-family="Times,serif" font-size="14.00" fill="#000000">body :text</text>
<text text-anchor="start" x="1082.8254" y="-367.3" font-family="Times,serif" font-size="14.00" fill="#000000">conversation_id :integer</text>
<text text-anchor="start" x="1082.8254" y="-353.3" font-family="Times,serif" font-size="14.00" fill="#000000">id :integer</text>
<text text-anchor="start" x="1082.8254" y="-339.3" font-family="Times,serif" font-size="14.00" fill="#000000">read :boolean</text>
<text text-anchor="start" x="1082.8254" y="-325.3" font-family="Times,serif" font-size="14.00" fill="#000000">created_at :timestamp without time zone</text>
<text text-anchor="start" x="1082.8254" y="-311.3" font-family="Times,serif" font-size="14.00" fill="#000000">updated_at :timestamp without time zone</text>
</g>
<!-- Conversation&#45;&gt;Message -->
<g id="edge3" class="edge">
<title>Conversation&#45;&gt;Message</title>
<path fill="none" stroke="#129568" d="M1198.6877,-601.227C1198.6877,-555.696 1198.6877,-492.1015 1198.6877,-442.8945"/>
<ellipse fill="none" stroke="#129568" cx="1198.6878" cy="-605.4753" rx="4" ry="4"/>
<polygon fill="#129568" stroke="#129568" points="1198.6878,-442.6243 1203.1877,-432.6242 1198.6878,-437.6243 1198.6877,-432.6243 1198.6877,-432.6243 1198.6877,-432.6243 1198.6878,-437.6243 1194.1877,-432.6243 1198.6878,-442.6243 1198.6878,-442.6243"/>
</g>
<!-- Poem -->
<g id="node9" class="node">
<title>Poem</title>
<polygon fill="none" stroke="#000000" points="1340.6877,-637.5 1340.6877,-681.5 1394.6877,-681.5 1394.6877,-637.5 1340.6877,-637.5"/>
<text text-anchor="middle" x="1367.6326" y="-666.3" font-family="Times,serif" font-size="14.00" fill="#000000">Poem</text>
<polyline fill="none" stroke="#000000" points="1340.6877,-659.5 1394.5774,-659.5 "/>
<text text-anchor="middle" x="1367.6326" y="-644.3" font-family="Times,serif" font-size="14.00" fill="#000000"> </text>
</g>
<!-- Relationship -->
<g id="node10" class="node">
<title>Relationship</title>
<path fill="none" stroke="#000000" d="M474.8254,-318.5C474.8254,-318.5 698.55,-318.5 698.55,-318.5 704.55,-318.5 710.55,-324.5 710.55,-330.5 710.55,-330.5 710.55,-406.5 710.55,-406.5 710.55,-412.5 704.55,-418.5 698.55,-418.5 698.55,-418.5 474.8254,-418.5 474.8254,-418.5 468.8254,-418.5 462.8254,-412.5 462.8254,-406.5 462.8254,-406.5 462.8254,-330.5 462.8254,-330.5 462.8254,-324.5 468.8254,-318.5 474.8254,-318.5"/>
<text text-anchor="middle" x="586.6877" y="-403.3" font-family="Times,serif" font-size="14.00" fill="#000000">Relationship</text>
<polyline fill="none" stroke="#000000" points="462.8254,-396.5 710.55,-396.5 "/>
<text text-anchor="start" x="470.8254" y="-381.3" font-family="Times,serif" font-size="14.00" fill="#000000">id :integer</text>
<text text-anchor="start" x="470.8254" y="-367.3" font-family="Times,serif" font-size="14.00" fill="#000000">follower_id :integer</text>
<text text-anchor="start" x="470.8254" y="-353.3" font-family="Times,serif" font-size="14.00" fill="#000000">followed_id :integer</text>
<text text-anchor="start" x="470.8254" y="-339.3" font-family="Times,serif" font-size="14.00" fill="#000000">created_at :timestamp without time zone</text>
<text text-anchor="start" x="470.8254" y="-325.3" font-family="Times,serif" font-size="14.00" fill="#000000">updated_at :timestamp without time zone</text>
</g>
<!-- User -->
<g id="node11" class="node">
<title>User</title>
<path fill="none" stroke="#000000" d="M311.053,-483.5C311.053,-483.5 606.3225,-483.5 606.3225,-483.5 612.3225,-483.5 618.3225,-489.5 618.3225,-495.5 618.3225,-495.5 618.3225,-823.5 618.3225,-823.5 618.3225,-829.5 612.3225,-835.5 606.3225,-835.5 606.3225,-835.5 311.053,-835.5 311.053,-835.5 305.053,-835.5 299.053,-829.5 299.053,-823.5 299.053,-823.5 299.053,-495.5 299.053,-495.5 299.053,-489.5 305.053,-483.5 311.053,-483.5"/>
<text text-anchor="middle" x="458.6877" y="-820.3" font-family="Times,serif" font-size="14.00" fill="#000000">User</text>
<polyline fill="none" stroke="#000000" points="299.053,-813.5 618.3225,-813.5 "/>
<text text-anchor="start" x="307.053" y="-798.3" font-family="Times,serif" font-size="14.00" fill="#000000">avatar :character varying</text>
<text text-anchor="start" x="307.053" y="-784.3" font-family="Times,serif" font-size="14.00" fill="#000000">email :character varying</text>
<text text-anchor="start" x="307.053" y="-770.3" font-family="Times,serif" font-size="14.00" fill="#000000">encrypted_password :character varying</text>
<text text-anchor="start" x="307.053" y="-756.3" font-family="Times,serif" font-size="14.00" fill="#000000">reset_password_token :character varying</text>
<text text-anchor="start" x="307.053" y="-742.3" font-family="Times,serif" font-size="14.00" fill="#000000">reset_password_sent_at :timestamp without time zone</text>
<text text-anchor="start" x="307.053" y="-728.3" font-family="Times,serif" font-size="14.00" fill="#000000">remember_created_at :timestamp without time zone</text>
<text text-anchor="start" x="307.053" y="-714.3" font-family="Times,serif" font-size="14.00" fill="#000000">sign_in_count :integer</text>
<text text-anchor="start" x="307.053" y="-700.3" font-family="Times,serif" font-size="14.00" fill="#000000">current_sign_in_at :timestamp without time zone</text>
<text text-anchor="start" x="307.053" y="-686.3" font-family="Times,serif" font-size="14.00" fill="#000000">last_sign_in_at :timestamp without time zone</text>
<text text-anchor="start" x="307.053" y="-672.3" font-family="Times,serif" font-size="14.00" fill="#000000">current_sign_in_ip :inet</text>
<text text-anchor="start" x="307.053" y="-658.3" font-family="Times,serif" font-size="14.00" fill="#000000">last_sign_in_ip :inet</text>
<text text-anchor="start" x="307.053" y="-644.3" font-family="Times,serif" font-size="14.00" fill="#000000">created_at :timestamp without time zone</text>
<text text-anchor="start" x="307.053" y="-630.3" font-family="Times,serif" font-size="14.00" fill="#000000">updated_at :timestamp without time zone</text>
<text text-anchor="start" x="307.053" y="-616.3" font-family="Times,serif" font-size="14.00" fill="#000000">name :character varying</text>
<text text-anchor="start" x="307.053" y="-602.3" font-family="Times,serif" font-size="14.00" fill="#000000">confirmation_token :character varying</text>
<text text-anchor="start" x="307.053" y="-588.3" font-family="Times,serif" font-size="14.00" fill="#000000">confirmed_at :timestamp without time zone</text>
<text text-anchor="start" x="307.053" y="-574.3" font-family="Times,serif" font-size="14.00" fill="#000000">confirmation_sent_at :timestamp without time zone</text>
<text text-anchor="start" x="307.053" y="-560.3" font-family="Times,serif" font-size="14.00" fill="#000000">unconfirmed_email :character varying</text>
<text text-anchor="start" x="307.053" y="-546.3" font-family="Times,serif" font-size="14.00" fill="#000000">admin :boolean</text>
<text text-anchor="start" x="307.053" y="-532.3" font-family="Times,serif" font-size="14.00" fill="#000000">uid :character varying</text>
<text text-anchor="start" x="307.053" y="-518.3" font-family="Times,serif" font-size="14.00" fill="#000000">provider :character varying</text>
<text text-anchor="start" x="307.053" y="-504.3" font-family="Times,serif" font-size="14.00" fill="#000000">image_url :character varying</text>
<text text-anchor="start" x="307.053" y="-490.3" font-family="Times,serif" font-size="14.00" fill="#000000">id :integer</text>
</g>
<!-- User&#45;&gt;Blog -->
<g id="edge4" class="edge">
<title>User&#45;&gt;Blog</title>
<path fill="none" stroke="#104fb9" d="M347.628,-475.8727C338.7693,-461.2258 330.2461,-447.1335 322.4532,-434.2486"/>
<ellipse fill="none" stroke="#104fb9" cx="349.9249" cy="-479.6705" rx="4" ry="4"/>
<polygon fill="#104fb9" stroke="#104fb9" points="322.3549,-434.086 321.0302,-423.2004 319.7673,-429.8076 317.1796,-425.5292 317.1796,-425.5292 317.1796,-425.5292 319.7673,-429.8076 313.3291,-427.8581 322.3549,-434.086 322.3549,-434.086"/>
</g>
<!-- User&#45;&gt;Comment -->
<g id="edge5" class="edge">
<title>User&#45;&gt;Comment</title>
<path fill="none" stroke="#d3336e" d="M451.2264,-474.8432C445.0342,-418.8553 434.2529,-357.9262 415.6877,-304 412.3793,-294.39 407.9945,-284.705 403.1215,-275.3887"/>
<ellipse fill="none" stroke="#d3336e" cx="451.681" cy="-479.0892" rx="4" ry="4"/>
<polygon fill="#d3336e" stroke="#d3336e" points="403.1076,-275.3631 402.2696,-264.4293 400.7133,-270.9736 398.3191,-266.5841 398.3191,-266.5841 398.3191,-266.5841 400.7133,-270.9736 394.3685,-268.739 403.1076,-275.3631 403.1076,-275.3631"/>
</g>
<!-- User&#45;&gt;Relationship -->
<g id="edge6" class="edge">
<title>User&#45;&gt;Relationship</title>
<path fill="none" stroke="#ab4d83" d="M505.8466,-475.797C509.5311,-467.2847 513.4735,-458.9748 517.6877,-451 521.9802,-442.8772 527.1716,-434.8292 532.7577,-427.1272"/>
<ellipse fill="none" stroke="#ab4d83" cx="504.2277" cy="-479.64" rx="4" ry="4"/>
<polygon fill="#ab4d83" stroke="#ab4d83" points="532.9279,-426.9017 542.5428,-421.6287 535.9391,-422.9101 538.9504,-418.9185 538.9504,-418.9185 538.9504,-418.9185 535.9391,-422.9101 535.358,-416.2084 532.9279,-426.9017 532.9279,-426.9017"/>
</g>
<!-- User&#45;&gt;Relationship -->
<g id="edge7" class="edge">
<title>User&#45;&gt;Relationship</title>
<path fill="none" stroke="#ddcb54" d="M539.537,-475.6943C547.0399,-458.6368 554.2103,-442.3355 560.594,-427.8226"/>
<ellipse fill="none" stroke="#ddcb54" cx="537.8931" cy="-479.4317" rx="4" ry="4"/>
<polygon fill="#ddcb54" stroke="#ddcb54" points="560.6446,-427.7074 568.7901,-420.3657 562.6578,-423.1306 564.671,-418.5538 564.671,-418.5538 564.671,-418.5538 562.6578,-423.1306 560.5518,-416.7419 560.6446,-427.7074 560.6446,-427.7074"/>
<text text-anchor="middle" x="609.1672" y="-453.8" font-family="Times,serif" font-size="14.00" fill="#000000">reverse_relationships</text>
</g>
<!-- User&#45;&gt;User -->
<g id="edge8" class="edge">
<title>User&#45;&gt;User</title>
<path fill="none" stroke="#1a5152" d="M627.9457,-669.5849C633.2873,-666.864 636.3225,-663.5024 636.3225,-659.5 636.3225,-655.4976 633.2873,-652.136 627.9457,-649.4151"/>
<polygon fill="#1a5152" stroke="#1a5152" points="627.9156,-669.5961 616.9718,-668.9002 623.2349,-671.3544 618.5543,-673.1127 618.5543,-673.1127 618.5543,-673.1127 623.2349,-671.3544 620.1368,-677.3253 627.9156,-669.5961 627.9156,-669.5961"/>
<polygon fill="#1a5152" stroke="#1a5152" points="627.9156,-649.4039 620.1368,-641.6747 623.2349,-647.6456 618.5543,-645.8873 618.5543,-645.8873 618.5543,-645.8873 623.2349,-647.6456 616.9718,-650.0998 627.9156,-649.4039 627.9156,-649.4039"/>
<text text-anchor="middle" x="679.0916" y="-655.3" font-family="Times,serif" font-size="14.00" fill="#000000">followed_users</text>
</g>
<!-- User&#45;&gt;User -->
<g id="edge9" class="edge">
<title>User&#45;&gt;User</title>
<path fill="none" stroke="#cd3859" d="M628.5077,-696.7556C680.0385,-694.9003 721.8606,-682.4817 721.8606,-659.5 721.8606,-636.5183 680.0385,-624.0997 628.5077,-622.2444"/>
<polygon fill="#cd3859" stroke="#cd3859" points="628.4295,-696.7573 618.3306,-692.4838 623.4307,-696.87 618.432,-696.9827 618.432,-696.9827 618.432,-696.9827 623.4307,-696.87 618.5335,-701.4815 628.4295,-696.7573 628.4295,-696.7573"/>
<polygon fill="#cd3859" stroke="#cd3859" points="628.4295,-622.2427 618.5335,-617.5185 623.4307,-622.13 618.432,-622.0173 618.432,-622.0173 618.432,-622.0173 623.4307,-622.13 618.3306,-626.5162 628.4295,-622.2427 628.4295,-622.2427"/>
<text text-anchor="middle" x="748.2986" y="-655.3" font-family="Times,serif" font-size="14.00" fill="#000000">followers</text>
</g>
</g>
</svg>
