<?xml version="1.0" encoding="UTF-8" standalone="no"?>
<!DOCTYPE svg PUBLIC "-//W3C//DTD SVG 1.1//EN"
 "http://www.w3.org/Graphics/SVG/1.1/DTD/svg11.dtd">
<!-- Generated by graphviz version 2.40.1 (20161225.0304)
 -->
<!-- Title: models_diagram Pages: 1 -->
<svg width="833pt" height="313pt"
 viewBox="0.00 0.00 832.69 313.00" xmlns="http://www.w3.org/2000/svg" xmlns:xlink="http://www.w3.org/1999/xlink">
<g id="graph0" class="graph" transform="scale(1 1) rotate(0) translate(4 309)">
<title>models_diagram</title>
<polygon fill="transparent" stroke="transparent" points="-4,4 -4,-309 828.6877,-309 828.6877,4 -4,4"/>
<!-- _diagram_info -->
<g id="node1" class="node">
<title>_diagram_info</title>
<text text-anchor="start" x="8" y="-290.6" font-family="Times,serif" font-size="13.00" fill="#000000">Models diagram</text>
<text text-anchor="start" x="8" y="-277.6" font-family="Times,serif" font-size="13.00" fill="#000000">Date: May 10 2017 &#45; 20:55</text>
<text text-anchor="start" x="8" y="-264.6" font-family="Times,serif" font-size="13.00" fill="#000000">Migration version: 20170502074945</text>
<text text-anchor="start" x="8" y="-251.6" font-family="Times,serif" font-size="13.00" fill="#000000">Generated by RailRoady 1.5.2</text>
<text text-anchor="start" x="8" y="-238.6" font-family="Times,serif" font-size="13.00" fill="#000000">http://railroady.prestonlee.com</text>
</g>
<!-- Ability -->
<g id="node2" class="node">
<title>Ability</title>
<polygon fill="none" stroke="#000000" points="281.3577,-286.5 226.0178,-286.5 226.0178,-250.5 281.3577,-250.5 281.3577,-286.5"/>
<text text-anchor="middle" x="253.6877" y="-264.3" font-family="Times,serif" font-size="14.00" fill="#000000">Ability</text>
</g>
<!-- Blog -->
<g id="node3" class="node">
<title>Blog</title>
<ellipse fill="none" stroke="#000000" cx="255.6877" cy="-164" rx="27.113" ry="18"/>
<text text-anchor="middle" x="255.6877" y="-159.8" font-family="Times,serif" font-size="14.00" fill="#000000">Blog</text>
</g>
<!-- Comment -->
<g id="node4" class="node">
<title>Comment</title>
<ellipse fill="none" stroke="#000000" cx="282.6877" cy="-91" rx="44.9768" ry="18"/>
<text text-anchor="middle" x="282.6877" y="-86.8" font-family="Times,serif" font-size="14.00" fill="#000000">Comment</text>
</g>
<!-- Blog&#45;&gt;Comment -->
<g id="edge1" class="edge">
<title>Blog&#45;&gt;Comment</title>
<path fill="none" stroke="#9ead79" d="M265.0116,-138.7909C267.3898,-132.3612 269.9597,-125.4129 272.3838,-118.8589"/>
<ellipse fill="none" stroke="#9ead79" cx="263.6113" cy="-142.5771" rx="4" ry="4"/>
<polygon fill="#9ead79" stroke="#9ead79" points="272.5554,-118.3947 280.245,-110.5767 274.2899,-113.7052 276.0244,-109.0157 276.0244,-109.0157 276.0244,-109.0157 274.2899,-113.7052 271.8038,-107.4546 272.5554,-118.3947 272.5554,-118.3947"/>
</g>
<!-- Notification -->
<g id="node8" class="node">
<title>Notification</title>
<ellipse fill="none" stroke="#000000" cx="282.6877" cy="-18" rx="52.2106" ry="18"/>
<text text-anchor="middle" x="282.6877" y="-13.8" font-family="Times,serif" font-size="14.00" fill="#000000">Notification</text>
</g>
<!-- Comment&#45;&gt;Notification -->
<g id="edge2" class="edge">
<title>Comment&#45;&gt;Notification</title>
<path fill="none" stroke="#937fd5" d="M282.6877,-64.9079C282.6877,-58.9427 282.6877,-52.5729 282.6877,-46.512"/>
<ellipse fill="none" stroke="#937fd5" cx="282.6878" cy="-68.9551" rx="4" ry="4"/>
<polygon fill="#937fd5" stroke="#937fd5" points="282.6878,-46.0904 287.1877,-36.0903 282.6878,-41.0904 282.6877,-36.0904 282.6877,-36.0904 282.6877,-36.0904 282.6878,-41.0904 278.1877,-36.0904 282.6878,-46.0904 282.6878,-46.0904"/>
</g>
<!-- Contact -->
<g id="node5" class="node">
<title>Contact</title>
<ellipse fill="none" stroke="#000000" cx="582.6877" cy="-268.5" rx="37.7266" ry="18"/>
<text text-anchor="middle" x="582.6877" y="-264.3" font-family="Times,serif" font-size="14.00" fill="#000000">Contact</text>
</g>
<!-- Conversation -->
<g id="node6" class="node">
<title>Conversation</title>
<ellipse fill="none" stroke="#000000" cx="695.6877" cy="-268.5" rx="57.0305" ry="18"/>
<text text-anchor="middle" x="695.6877" y="-264.3" font-family="Times,serif" font-size="14.00" fill="#000000">Conversation</text>
</g>
<!-- Message -->
<g id="node7" class="node">
<title>Message</title>
<ellipse fill="none" stroke="#000000" cx="695.6877" cy="-164" rx="41.1007" ry="18"/>
<text text-anchor="middle" x="695.6877" y="-159.8" font-family="Times,serif" font-size="14.00" fill="#000000">Message</text>
</g>
<!-- Conversation&#45;&gt;Message -->
<g id="edge3" class="edge">
<title>Conversation&#45;&gt;Message</title>
<path fill="none" stroke="#c1e868" d="M695.6877,-242.1853C695.6877,-227.0145 695.6877,-207.9357 695.6877,-192.4227"/>
<ellipse fill="none" stroke="#c1e868" cx="695.6878" cy="-246.2975" rx="4" ry="4"/>
<polygon fill="#c1e868" stroke="#c1e868" points="695.6878,-192.3445 700.1877,-182.3445 695.6878,-187.3445 695.6877,-182.3445 695.6877,-182.3445 695.6877,-182.3445 695.6878,-187.3445 691.1877,-182.3446 695.6878,-192.3445 695.6878,-192.3445"/>
</g>
<!-- Poem -->
<g id="node9" class="node">
<title>Poem</title>
<polygon fill="none" stroke="#000000" points="824.6877,-286.5 770.6877,-286.5 770.6877,-250.5 824.6877,-250.5 824.6877,-286.5"/>
<text text-anchor="middle" x="797.6877" y="-264.3" font-family="Times,serif" font-size="14.00" fill="#000000">Poem</text>
</g>
<!-- Relationship -->
<g id="node10" class="node">
<title>Relationship</title>
<ellipse fill="none" stroke="#000000" cx="393.6877" cy="-164" rx="54.6248" ry="18"/>
<text text-anchor="middle" x="393.6877" y="-159.8" font-family="Times,serif" font-size="14.00" fill="#000000">Relationship</text>
</g>
<!-- User -->
<g id="node11" class="node">
<title>User</title>
<ellipse fill="none" stroke="#000000" cx="326.6877" cy="-268.5" rx="27" ry="18"/>
<text text-anchor="middle" x="326.6877" y="-264.3" font-family="Times,serif" font-size="14.00" fill="#000000">User</text>
</g>
<!-- User&#45;&gt;Blog -->
<g id="edge4" class="edge">
<title>User&#45;&gt;Blog</title>
<path fill="none" stroke="#18a2c1" d="M310.6509,-244.8964C299.3497,-228.263 284.2397,-206.0237 272.7227,-189.0726"/>
<ellipse fill="none" stroke="#18a2c1" cx="313.0324" cy="-248.4017" rx="4" ry="4"/>
<polygon fill="#18a2c1" stroke="#18a2c1" points="272.6867,-189.0196 270.789,-178.2191 269.8768,-184.8838 267.0668,-180.7481 267.0668,-180.7481 267.0668,-180.7481 269.8768,-184.8838 263.3446,-183.277 272.6867,-189.0196 272.6867,-189.0196"/>
</g>
<!-- User&#45;&gt;Comment -->
<g id="edge5" class="edge">
<title>User&#45;&gt;Comment</title>
<path fill="none" stroke="#a53993" d="M320.1957,-242.3104C312.0306,-209.3718 298.0668,-153.0405 289.675,-119.1874"/>
<ellipse fill="none" stroke="#a53993" cx="321.2642" cy="-246.621" rx="4" ry="4"/>
<polygon fill="#a53993" stroke="#a53993" points="289.5668,-118.7503 291.5285,-107.9613 288.3637,-113.8972 287.1606,-109.0441 287.1606,-109.0441 287.1606,-109.0441 288.3637,-113.8972 282.7928,-110.1268 289.5668,-118.7503 289.5668,-118.7503"/>
</g>
<!-- User&#45;&gt;Relationship -->
<g id="edge6" class="edge">
<title>User&#45;&gt;Relationship</title>
<path fill="none" stroke="#9f423b" d="M339.6284,-243.8064C346.8545,-230.5442 356.278,-214.0748 365.6877,-200 367.95,-196.6163 370.4327,-193.1399 372.9561,-189.7444"/>
<ellipse fill="none" stroke="#9f423b" cx="337.5414" cy="-247.6805" rx="4" ry="4"/>
<polygon fill="#9f423b" stroke="#9f423b" points="373.1339,-189.5121 382.7843,-184.3043 376.1721,-185.541 379.2103,-181.5699 379.2103,-181.5699 379.2103,-181.5699 376.1721,-185.541 375.6364,-178.8355 373.1339,-189.5121 373.1339,-189.5121"/>
</g>
<!-- User&#45;&gt;Relationship -->
<g id="edge7" class="edge">
<title>User&#45;&gt;Relationship</title>
<path fill="none" stroke="#d3c062" d="M343.9998,-245.5054C350.9831,-235.9285 358.9621,-224.5905 365.6877,-214 370.3896,-206.5962 375.1736,-198.3623 379.4255,-190.7481"/>
<ellipse fill="none" stroke="#d3c062" cx="341.494" cy="-248.9101" rx="4" ry="4"/>
<polygon fill="#d3c062" stroke="#d3c062" points="379.4909,-190.6291 388.2506,-184.0322 381.8988,-186.2471 384.3068,-181.8651 384.3068,-181.8651 384.3068,-181.8651 381.8988,-186.2471 380.363,-179.6979 379.4909,-190.6291 379.4909,-190.6291"/>
<text text-anchor="middle" x="434.1672" y="-202.8" font-family="Times,serif" font-size="14.00" fill="#000000">reverse_relationships</text>
</g>
<!-- User&#45;&gt;User -->
<g id="edge8" class="edge">
<title>User&#45;&gt;User</title>
<path fill="none" stroke="#c8fb37" d="M362.8078,-273.5868C368.11,-272.7856 371.6877,-271.09 371.6877,-268.5 371.6877,-265.91 368.11,-264.2144 362.8078,-263.4132"/>
<polygon fill="#c8fb37" stroke="#c8fb37" points="362.5717,-273.5983 352.3623,-269.5961 357.5778,-273.8445 352.5838,-274.0907 352.5838,-274.0907 352.5838,-274.0907 357.5778,-273.8445 352.8054,-278.5852 362.5717,-273.5983 362.5717,-273.5983"/>
<polygon fill="#c8fb37" stroke="#c8fb37" points="362.5717,-263.4017 352.8054,-258.4148 357.5778,-263.1555 352.5838,-262.9093 352.5838,-262.9093 352.5838,-262.9093 357.5778,-263.1555 352.3623,-267.4039 362.5717,-263.4017 362.5717,-263.4017"/>
<text text-anchor="middle" x="414.4568" y="-264.3" font-family="Times,serif" font-size="14.00" fill="#000000">followed_users</text>
</g>
<!-- User&#45;&gt;User -->
<g id="edge9" class="edge">
<title>User&#45;&gt;User</title>
<path fill="none" stroke="#8a77bb" d="M361.0204,-277.5979C400.6479,-282.313 457.2258,-279.2803 457.2258,-268.5 457.2258,-257.7197 400.6479,-254.687 361.0204,-259.4021"/>
<polygon fill="#8a77bb" stroke="#8a77bb" points="361.0064,-277.596 351.7382,-271.7351 356.0561,-276.8932 351.1057,-276.1904 351.1057,-276.1904 351.1057,-276.1904 356.0561,-276.8932 350.4732,-280.6458 361.0064,-277.596 361.0064,-277.596"/>
<polygon fill="#8a77bb" stroke="#8a77bb" points="361.0064,-259.404 350.4732,-256.3542 356.0561,-260.1068 351.1057,-260.8096 351.1057,-260.8096 351.1057,-260.8096 356.0561,-260.1068 351.7382,-265.2649 361.0064,-259.404 361.0064,-259.404"/>
<text text-anchor="middle" x="483.6638" y="-264.3" font-family="Times,serif" font-size="14.00" fill="#000000">followers</text>
</g>
</g>
</svg>
